<?plantuml 1.2026.2?><svg xmlns="http://www.w3.org/2000/svg" xmlns:xlink="http://www.w3.org/1999/xlink" contentStyleType="text/css" data-diagram-type="CLASS" height="737px" preserveAspectRatio="none" style="width:834px;height:737px;background:#FFFFFF;" version="1.1" viewBox="0 0 834 737" width="834px" zoomAndPan="magnify"><defs/><g><!--class region--><g class="entity" data-qualified-name="region" data-source-line="8" id="ent0002"><rect fill="#F1F1F1" height="114.0469" rx="2.5" ry="2.5" style="stroke:#181818;stroke-width:0.5;" width="167.627" x="301.5" y="7"/><text fill="#000000" font-family="sans-serif" font-size="14" lengthAdjust="spacing" textLength="44.3652" x="363.1309" y="26.5332">Region</text><line style="stroke:#181818;stroke-width:0.5;" x1="302.5" x2="468.127" y1="34.6094" y2="34.6094"/><g data-visibility-modifier="IE_MANDATORY"><ellipse cx="312.5" cy="48.9141" fill="#000000" rx="3" ry="3" style="stroke:#000000;stroke-width:1;"/></g><text fill="#000000" font-family="sans-serif" font-size="14" lengthAdjust="spacing" textLength="141.627" x="321.5" y="53.1426">region_id : UUID &#171;PK&#187;</text><line style="stroke:#181818;stroke-width:1;" x1="302.5" x2="468.127" y1="60.2188" y2="60.2188"/><text fill="#000000" font-family="sans-serif" font-size="14" lengthAdjust="spacing" textLength="93.3721" x="307.5" y="78.752">name : varchar</text><text fill="#000000" font-family="sans-serif" font-size="14" lengthAdjust="spacing" textLength="140.8408" x="307.5" y="96.3613">climate_zone : varchar</text><text fill="#000000" font-family="sans-serif" font-size="14" lengthAdjust="spacing" textLength="91.0684" x="307.5" y="113.9707">population : int</text></g><!--class station--><g class="entity" data-qualified-name="station" data-source-line="16" id="ent0003"><rect fill="#F1F1F1" height="149.2656" rx="2.5" ry="2.5" style="stroke:#181818;stroke-width:0.5;" width="169.958" x="590.5" y="181"/><text fill="#000000" font-family="sans-serif" font-size="14" lengthAdjust="spacing" textLength="108.9512" x="621.0034" y="200.5332">MonitoringStation</text><line style="stroke:#181818;stroke-width:0.5;" x1="591.5" x2="759.458" y1="208.6094" y2="208.6094"/><g data-visibility-modifier="IE_MANDATORY"><ellipse cx="601.5" cy="222.9141" fill="#000000" rx="3" ry="3" style="stroke:#000000;stroke-width:1;"/></g><text fill="#000000" font-family="sans-serif" font-size="14" lengthAdjust="spacing" textLength="143.958" x="610.5" y="227.1426">station_id : UUID &#171;PK&#187;</text><line style="stroke:#181818;stroke-width:1;" x1="591.5" x2="759.458" y1="234.2188" y2="234.2188"/><text fill="#000000" font-family="sans-serif" font-size="14" lengthAdjust="spacing" textLength="140.8408" x="596.5" y="252.752">region_id : UUID &#171;FK&#187;</text><text fill="#000000" font-family="sans-serif" font-size="14" lengthAdjust="spacing" textLength="142.4063" x="596.5" y="270.3613">station_name : varchar</text><text fill="#000000" font-family="sans-serif" font-size="14" lengthAdjust="spacing" textLength="105.0547" x="596.5" y="287.9707">latitude : decimal</text><text fill="#000000" font-family="sans-serif" font-size="14" lengthAdjust="spacing" textLength="116.7373" x="596.5" y="305.5801">longitude : decimal</text><text fill="#000000" font-family="sans-serif" font-size="14" lengthAdjust="spacing" textLength="109.7441" x="596.5" y="323.1895">install_date : date</text></g><!--class sensor--><g class="entity" data-qualified-name="sensor" data-source-line="26" id="ent0004"><rect fill="#F1F1F1" height="131.6563" rx="2.5" ry="2.5" style="stroke:#181818;stroke-width:0.5;" width="170.7305" x="590" y="398.5"/><text fill="#000000" font-family="sans-serif" font-size="14" lengthAdjust="spacing" textLength="44.3584" x="653.186" y="418.0332">Sensor</text><line style="stroke:#181818;stroke-width:0.5;" x1="591" x2="759.7305" y1="426.1094" y2="426.1094"/><g data-visibility-modifier="IE_MANDATORY"><ellipse cx="601" cy="440.4141" fill="#000000" rx="3" ry="3" style="stroke:#000000;stroke-width:1;"/></g><text fill="#000000" font-family="sans-serif" font-size="14" lengthAdjust="spacing" textLength="144.7305" x="610" y="444.6426">sensor_id : UUID &#171;PK&#187;</text><line style="stroke:#181818;stroke-width:1;" x1="591" x2="759.7305" y1="451.7188" y2="451.7188"/><text fill="#000000" font-family="sans-serif" font-size="14" lengthAdjust="spacing" textLength="143.1719" x="596" y="470.252">station_id : UUID &#171;FK&#187;</text><text fill="#000000" font-family="sans-serif" font-size="14" lengthAdjust="spacing" textLength="134.6201" x="596" y="487.8613">sensor_type : varchar</text><text fill="#000000" font-family="sans-serif" font-size="14" lengthAdjust="spacing" textLength="80.9238" x="596" y="505.4707">unit : varchar</text><text fill="#000000" font-family="sans-serif" font-size="14" lengthAdjust="spacing" textLength="95.7031" x="596" y="523.0801">status : varchar</text></g><!--class measurement--><g class="entity" data-qualified-name="measurement" data-source-line="35" id="ent0005"><rect fill="#F1F1F1" height="131.6563" rx="2.5" ry="2.5" style="stroke:#181818;stroke-width:0.5;" width="214.3027" x="568.5" y="599"/><text fill="#000000" font-family="sans-serif" font-size="14" lengthAdjust="spacing" textLength="85.5928" x="632.855" y="618.5332">Measurement</text><line style="stroke:#181818;stroke-width:0.5;" x1="569.5" x2="781.8027" y1="626.6094" y2="626.6094"/><g data-visibility-modifier="IE_MANDATORY"><ellipse cx="579.5" cy="640.9141" fill="#000000" rx="3" ry="3" style="stroke:#000000;stroke-width:1;"/></g><text fill="#000000" font-family="sans-serif" font-size="14" lengthAdjust="spacing" textLength="188.3027" x="588.5" y="645.1426">measurement_id : UUID &#171;PK&#187;</text><line style="stroke:#181818;stroke-width:1;" x1="569.5" x2="781.8027" y1="652.2188" y2="652.2188"/><text fill="#000000" font-family="sans-serif" font-size="14" lengthAdjust="spacing" textLength="143.9443" x="574.5" y="670.752">sensor_id : UUID &#171;FK&#187;</text><text fill="#000000" font-family="sans-serif" font-size="14" lengthAdjust="spacing" textLength="147.082" x="574.5" y="688.3613">measured_at : datetime</text><text fill="#000000" font-family="sans-serif" font-size="14" lengthAdjust="spacing" textLength="93.3789" x="574.5" y="705.9707">value : decimal</text><text fill="#000000" font-family="sans-serif" font-size="14" lengthAdjust="spacing" textLength="129.1787" x="574.5" y="723.5801">quality_flag : varchar</text></g><!--class forecast--><g class="entity" data-qualified-name="forecast" data-source-line="44" id="ent0006"><rect fill="#F1F1F1" height="149.2656" rx="2.5" ry="2.5" style="stroke:#181818;stroke-width:0.5;" width="178.5098" x="7" y="181"/><text fill="#000000" font-family="sans-serif" font-size="14" lengthAdjust="spacing" textLength="81.6826" x="55.4136" y="200.5332">RiskForecast</text><line style="stroke:#181818;stroke-width:0.5;" x1="8" x2="184.5098" y1="208.6094" y2="208.6094"/><g data-visibility-modifier="IE_MANDATORY"><ellipse cx="18" cy="222.9141" fill="#000000" rx="3" ry="3" style="stroke:#000000;stroke-width:1;"/></g><text fill="#000000" font-family="sans-serif" font-size="14" lengthAdjust="spacing" textLength="152.5098" x="27" y="227.1426">forecast_id : UUID &#171;PK&#187;</text><line style="stroke:#181818;stroke-width:1;" x1="8" x2="184.5098" y1="234.2188" y2="234.2188"/><text fill="#000000" font-family="sans-serif" font-size="14" lengthAdjust="spacing" textLength="140.8408" x="13" y="252.752">region_id : UUID &#171;FK&#187;</text><text fill="#000000" font-family="sans-serif" font-size="14" lengthAdjust="spacing" textLength="149.3994" x="13" y="270.3613">forecast_time : datetime</text><text fill="#000000" font-family="sans-serif" font-size="14" lengthAdjust="spacing" textLength="114.3721" x="13" y="287.9707">risk_type : varchar</text><text fill="#000000" font-family="sans-serif" font-size="14" lengthAdjust="spacing" textLength="116.7031" x="13" y="305.5801">risk_level : varchar</text><text fill="#000000" font-family="sans-serif" font-size="14" lengthAdjust="spacing" textLength="127.627" x="13" y="323.1895">confidence : decimal</text></g><!--class alert--><g class="entity" data-qualified-name="alert" data-source-line="54" id="ent0007"><rect fill="#F1F1F1" height="149.2656" rx="2.5" ry="2.5" style="stroke:#181818;stroke-width:0.5;" width="163.7236" x="14.5" y="390"/><text fill="#000000" font-family="sans-serif" font-size="14" lengthAdjust="spacing" textLength="28.7861" x="81.9688" y="409.5332">Alert</text><line style="stroke:#181818;stroke-width:0.5;" x1="15.5" x2="177.2236" y1="417.6094" y2="417.6094"/><g data-visibility-modifier="IE_MANDATORY"><ellipse cx="25.5" cy="431.9141" fill="#000000" rx="3" ry="3" style="stroke:#000000;stroke-width:1;"/></g><text fill="#000000" font-family="sans-serif" font-size="14" lengthAdjust="spacing" textLength="129.9443" x="34.5" y="436.1426">alert_id : UUID &#171;PK&#187;</text><line style="stroke:#181818;stroke-width:1;" x1="15.5" x2="177.2236" y1="443.2188" y2="443.2188"/><text fill="#000000" font-family="sans-serif" font-size="14" lengthAdjust="spacing" textLength="151.7236" x="20.5" y="461.752">forecast_id : UUID &#171;FK&#187;</text><text fill="#000000" font-family="sans-serif" font-size="14" lengthAdjust="spacing" textLength="131.5234" x="20.5" y="479.3613">created_at : datetime</text><text fill="#000000" font-family="sans-serif" font-size="14" lengthAdjust="spacing" textLength="106.5859" x="20.5" y="496.9707">severity : varchar</text><text fill="#000000" font-family="sans-serif" font-size="14" lengthAdjust="spacing" textLength="91.041" x="20.5" y="514.5801">message : text</text><text fill="#000000" font-family="sans-serif" font-size="14" lengthAdjust="spacing" textLength="95.7031" x="20.5" y="532.1895">status : varchar</text></g><!--class user--><g class="entity" data-qualified-name="user" data-source-line="64" id="ent0008"><rect fill="#F1F1F1" height="114.0469" rx="2.5" ry="2.5" style="stroke:#181818;stroke-width:0.5;" width="177.7168" x="213.5" y="407.5"/><text fill="#000000" font-family="sans-serif" font-size="14" lengthAdjust="spacing" textLength="76.2549" x="264.231" y="427.0332">AgencyUser</text><line style="stroke:#181818;stroke-width:0.5;" x1="214.5" x2="390.2168" y1="435.1094" y2="435.1094"/><g data-visibility-modifier="IE_MANDATORY"><ellipse cx="224.5" cy="449.4141" fill="#000000" rx="3" ry="3" style="stroke:#000000;stroke-width:1;"/></g><text fill="#000000" font-family="sans-serif" font-size="14" lengthAdjust="spacing" textLength="129.9443" x="233.5" y="453.6426">user_id : UUID &#171;PK&#187;</text><line style="stroke:#181818;stroke-width:1;" x1="214.5" x2="390.2168" y1="460.7188" y2="460.7188"/><text fill="#000000" font-family="sans-serif" font-size="14" lengthAdjust="spacing" textLength="119.0547" x="219.5" y="479.252">full_name : varchar</text><text fill="#000000" font-family="sans-serif" font-size="14" lengthAdjust="spacing" textLength="81.6963" x="219.5" y="496.8613">role : varchar</text><text fill="#000000" font-family="sans-serif" font-size="14" lengthAdjust="spacing" textLength="165.7168" x="219.5" y="514.4707">email : varchar &#171;UNIQUE&#187;</text></g><!--class recipient--><g class="entity" data-qualified-name="recipient" data-source-line="72" id="ent0009"><rect fill="#F1F1F1" height="131.6563" rx="2.5" ry="2.5" style="stroke:#181818;stroke-width:0.5;" width="181.627" x="108.5" y="599"/><text fill="#000000" font-family="sans-serif" font-size="14" lengthAdjust="spacing" textLength="87.1514" x="155.7378" y="618.5332">AlertRecipient</text><line style="stroke:#181818;stroke-width:0.5;" x1="109.5" x2="289.127" y1="626.6094" y2="626.6094"/><g data-visibility-modifier="IE_MANDATORY"><ellipse cx="119.5" cy="640.9141" fill="#000000" rx="3" ry="3" style="stroke:#000000;stroke-width:1;"/></g><text fill="#000000" font-family="sans-serif" font-size="14" lengthAdjust="spacing" textLength="155.627" x="128.5" y="645.1426">recipient_id : UUID &#171;PK&#187;</text><line style="stroke:#181818;stroke-width:1;" x1="109.5" x2="289.127" y1="652.2188" y2="652.2188"/><text fill="#000000" font-family="sans-serif" font-size="14" lengthAdjust="spacing" textLength="129.1582" x="114.5" y="670.752">alert_id : UUID &#171;FK&#187;</text><text fill="#000000" font-family="sans-serif" font-size="14" lengthAdjust="spacing" textLength="129.1582" x="114.5" y="688.3613">user_id : UUID &#171;FK&#187;</text><text fill="#000000" font-family="sans-serif" font-size="14" lengthAdjust="spacing" textLength="141.6406" x="114.5" y="705.9707">delivered_at : datetime</text><text fill="#000000" font-family="sans-serif" font-size="14" lengthAdjust="spacing" textLength="151.7305" x="114.5" y="723.5801">delivery_status : varchar</text></g><g class="entity" data-qualified-name="GMN17" data-source-line="90" id="ent0018"><path d="M505,42.5 L505,60 L469.81,64 L505,68 L505,85.2031 A0,0 0 0 0 505,85.2031 L827.6597,85.2031 A0,0 0 0 0 827.6597,85.2031 L827.6597,52.5 L817.6597,42.5 L505,42.5 A0,0 0 0 0 505,42.5" fill="#FEFFDD" style="stroke:#181818;stroke-width:0.5;"/><path d="M817.6597,42.5 L817.6597,52.5 L827.6597,52.5 L817.6597,42.5" fill="#FEFFDD" style="stroke:#181818;stroke-width:0.5;"/><text fill="#000000" font-family="sans-serif" font-size="13" lengthAdjust="spacing" textLength="289.1294" x="511" y="60.9951">&#1057;&#1091;&#1097;&#1085;&#1086;&#1089;&#1090;&#1100; &#1086;&#1087;&#1080;&#1089;&#1099;&#1074;&#1072;&#1077;&#1090; &#1090;&#1077;&#1088;&#1088;&#1080;&#1090;&#1086;&#1088;&#1080;&#1102; &#1084;&#1086;&#1085;&#1080;&#1090;&#1086;&#1088;&#1080;&#1085;&#1075;&#1072;,</text><text fill="#000000" font-family="sans-serif" font-size="13" lengthAdjust="spacing" textLength="301.6597" x="511" y="77.3467">&#1076;&#1083;&#1103; &#1082;&#1086;&#1090;&#1086;&#1088;&#1086;&#1081; &#1072;&#1075;&#1088;&#1077;&#1075;&#1080;&#1088;&#1091;&#1102;&#1090;&#1089;&#1103; &#1080;&#1079;&#1084;&#1077;&#1088;&#1077;&#1085;&#1080;&#1103; &#1080; &#1087;&#1088;&#1086;&#1075;&#1085;&#1086;&#1079;&#1099;.</text></g><g class="entity" data-qualified-name="GMN20" data-source-line="95" id="ent0021"><path d="M221.5,218 L221.5,252 L186.09,256 L221.5,260 L221.5,293.4063 A0,0 0 0 0 221.5,293.4063 L555.4395,293.4063 A0,0 0 0 0 555.4395,293.4063 L555.4395,228 L545.4395,218 L221.5,218 A0,0 0 0 0 221.5,218" fill="#FEFFDD" style="stroke:#181818;stroke-width:0.5;"/><path d="M545.4395,218 L545.4395,228 L555.4395,228 L545.4395,218" fill="#FEFFDD" style="stroke:#181818;stroke-width:0.5;"/><text fill="#000000" font-family="sans-serif" font-size="13" lengthAdjust="spacing" textLength="168.0225" x="227.5" y="236.4951">&#1057;&#1074;&#1103;&#1079;&#1100; &#1089; Region &#1087;&#1086;&#1082;&#1072;&#1079;&#1099;&#1074;&#1072;&#1077;&#1090;,</text><text fill="#000000" font-family="sans-serif" font-size="13" lengthAdjust="spacing" textLength="312.9395" x="227.5" y="252.8467">&#1095;&#1090;&#1086; &#1087;&#1088;&#1086;&#1075;&#1085;&#1086;&#1079; &#1092;&#1086;&#1088;&#1084;&#1080;&#1088;&#1091;&#1077;&#1090;&#1089;&#1103; &#1076;&#1083;&#1103; &#1082;&#1086;&#1085;&#1082;&#1088;&#1077;&#1090;&#1085;&#1086;&#1075;&#1086; &#1088;&#1077;&#1075;&#1080;&#1086;&#1085;&#1072;.</text><text fill="#000000" font-family="sans-serif" font-size="13" lengthAdjust="spacing" textLength="219.1528" x="227.5" y="269.1982">&#1057;&#1074;&#1103;&#1079;&#1100; &#1089; Alert &#1086;&#1090;&#1088;&#1072;&#1078;&#1072;&#1077;&#1090; &#1086;&#1087;&#1086;&#1074;&#1077;&#1097;&#1077;&#1085;&#1080;&#1103;,</text><text fill="#000000" font-family="sans-serif" font-size="13" lengthAdjust="spacing" textLength="238.9893" x="227.5" y="285.5498">&#1082;&#1086;&#1090;&#1086;&#1088;&#1099;&#1077; &#1089;&#1086;&#1079;&#1076;&#1072;&#1102;&#1090;&#1089;&#1103; &#1087;&#1088;&#1080; &#1074;&#1099;&#1089;&#1086;&#1082;&#1086;&#1084; &#1088;&#1080;&#1089;&#1082;&#1077;.</text></g><!--link region to station--><g class="link" data-entity-1="ent0002" data-entity-2="ent0003" data-link-type="crowfoot" data-source-line="81" id="lnk10"><path codeLine="81" d="M477.77,104 C563.39,104 675.5,104 675.5,104 C675.5,104 675.5,124.47 675.5,162.64" fill="none" id="region-station" style="stroke:#181818;stroke-width:1;"/><line style="stroke:#181818;stroke-width:1;" x1="473.77" x2="473.77" y1="108" y2="100"/><line style="stroke:#181818;stroke-width:1;" x1="476.77" x2="476.77" y1="108" y2="100"/><line style="stroke:#181818;stroke-width:1;" x1="477.77" x2="469.77" y1="104" y2="104"/><line style="stroke:#181818;stroke-width:1;" x1="675.5" x2="681.5" y1="172.64" y2="180.64"/><line style="stroke:#181818;stroke-width:1;" x1="675.5" x2="669.5" y1="172.64" y2="180.64"/><line style="stroke:#181818;stroke-width:1;" x1="675.5" x2="675.5" y1="172.64" y2="180.64"/><ellipse cx="675.5" cy="166.64" fill="none" rx="4" ry="4" style="stroke:#181818;stroke-width:1;"/><text fill="#000000" font-family="sans-serif" font-size="13" lengthAdjust="spacing" textLength="48.4199" x="561.95" y="100.4951">contains</text></g><!--link station to sensor--><g class="link" data-entity-1="ent0003" data-entity-2="ent0004" data-link-type="crowfoot" data-source-line="82" id="lnk11"><path codeLine="82" d="M675.5,338.07 C675.5,360.34 675.5,358.6 675.5,380.3" fill="none" id="station-sensor" style="stroke:#181818;stroke-width:1;"/><line style="stroke:#181818;stroke-width:1;" x1="671.5" x2="679.5" y1="334.07" y2="334.07"/><line style="stroke:#181818;stroke-width:1;" x1="671.5" x2="679.5" y1="337.07" y2="337.07"/><line style="stroke:#181818;stroke-width:1;" x1="675.5" x2="675.5" y1="338.07" y2="330.07"/><line style="stroke:#181818;stroke-width:1;" x1="675.5" x2="681.5" y1="390.3" y2="398.3"/><line style="stroke:#181818;stroke-width:1;" x1="675.5" x2="669.5" y1="390.3" y2="398.3"/><line style="stroke:#181818;stroke-width:1;" x1="675.5" x2="675.5" y1="390.3" y2="398.3"/><ellipse cx="675.5" cy="384.3" fill="none" rx="4" ry="4" style="stroke:#181818;stroke-width:1;"/><text fill="#000000" font-family="sans-serif" font-size="13" lengthAdjust="spacing" textLength="31.0718" x="643.5" y="360.6751">hosts</text></g><!--link sensor to measurement--><g class="link" data-entity-1="ent0004" data-entity-2="ent0005" data-link-type="crowfoot" data-source-line="83" id="lnk12"><path codeLine="83" d="M675.5,538.71 C675.5,560.61 675.5,558.97 675.5,580.86" fill="none" id="sensor-measurement" style="stroke:#181818;stroke-width:1;"/><line style="stroke:#181818;stroke-width:1;" x1="671.5" x2="679.5" y1="534.71" y2="534.71"/><line style="stroke:#181818;stroke-width:1;" x1="671.5" x2="679.5" y1="537.71" y2="537.71"/><line style="stroke:#181818;stroke-width:1;" x1="675.5" x2="675.5" y1="538.71" y2="530.71"/><line style="stroke:#181818;stroke-width:1;" x1="675.5" x2="681.5" y1="590.86" y2="598.86"/><line style="stroke:#181818;stroke-width:1;" x1="675.5" x2="669.5" y1="590.86" y2="598.86"/><line style="stroke:#181818;stroke-width:1;" x1="675.5" x2="675.5" y1="590.86" y2="598.86"/><ellipse cx="675.5" cy="584.86" fill="none" rx="4" ry="4" style="stroke:#181818;stroke-width:1;"/><text fill="#000000" font-family="sans-serif" font-size="13" lengthAdjust="spacing" textLength="53.479" x="621.5" y="561.2751">produces</text></g><!--link region to forecast--><g class="link" data-entity-1="ent0002" data-entity-2="ent0006" data-link-type="crowfoot" data-source-line="84" id="lnk13"><path codeLine="84" d="M385.5,129.28 C385.5,166.45 385.5,200 385.5,200 C385.5,200 289.19,200 204.36,200" fill="none" id="region-forecast" style="stroke:#181818;stroke-width:1;"/><line style="stroke:#181818;stroke-width:1;" x1="381.5" x2="389.5" y1="125.28" y2="125.28"/><line style="stroke:#181818;stroke-width:1;" x1="381.5" x2="389.5" y1="128.28" y2="128.28"/><line style="stroke:#181818;stroke-width:1;" x1="385.5" x2="385.5" y1="129.28" y2="121.28"/><line style="stroke:#181818;stroke-width:1;" x1="194.36" x2="186.36" y1="200" y2="206"/><line style="stroke:#181818;stroke-width:1;" x1="194.36" x2="186.36" y1="200" y2="194"/><line style="stroke:#181818;stroke-width:1;" x1="194.36" x2="186.36" y1="200" y2="200"/><ellipse cx="200.36" cy="200" fill="none" rx="4" ry="4" style="stroke:#181818;stroke-width:1;"/><text fill="#000000" font-family="sans-serif" font-size="13" lengthAdjust="spacing" textLength="20.96" x="304.29" y="196.4951">has</text></g><!--link forecast to alert--><g class="link" data-entity-1="ent0006" data-entity-2="ent0007" data-link-type="crowfoot" data-source-line="85" id="lnk14"><path codeLine="85" d="M96.5,338.07 C96.5,357.53 96.5,352.5 96.5,371.96" fill="none" id="forecast-alert" style="stroke:#181818;stroke-width:1;"/><line style="stroke:#181818;stroke-width:1;" x1="92.5" x2="100.5" y1="334.07" y2="334.07"/><line style="stroke:#181818;stroke-width:1;" x1="92.5" x2="100.5" y1="337.07" y2="337.07"/><line style="stroke:#181818;stroke-width:1;" x1="96.5" x2="96.5" y1="338.07" y2="330.07"/><line style="stroke:#181818;stroke-width:1;" x1="96.5" x2="102.5" y1="381.96" y2="389.96"/><line style="stroke:#181818;stroke-width:1;" x1="96.5" x2="90.5" y1="381.96" y2="389.96"/><line style="stroke:#181818;stroke-width:1;" x1="96.5" x2="96.5" y1="381.96" y2="389.96"/><ellipse cx="96.5" cy="375.96" fill="none" rx="4" ry="4" style="stroke:#181818;stroke-width:1;"/><text fill="#000000" font-family="sans-serif" font-size="13" lengthAdjust="spacing" textLength="43.3481" x="52.5" y="356.5051">triggers</text></g><!--link alert to recipient--><g class="link" data-entity-1="ent0007" data-entity-2="ent0009" data-link-type="crowfoot" data-source-line="86" id="lnk15"><path codeLine="86" d="M143.5,547.16 C143.5,566.75 143.5,561.75 143.5,580.86" fill="none" id="alert-recipient" style="stroke:#181818;stroke-width:1;"/><line style="stroke:#181818;stroke-width:1;" x1="139.5" x2="147.5" y1="543.16" y2="543.16"/><line style="stroke:#181818;stroke-width:1;" x1="139.5" x2="147.5" y1="546.16" y2="546.16"/><line style="stroke:#181818;stroke-width:1;" x1="143.5" x2="143.5" y1="547.16" y2="539.16"/><line style="stroke:#181818;stroke-width:1;" x1="143.5" x2="149.5" y1="590.86" y2="598.86"/><line style="stroke:#181818;stroke-width:1;" x1="143.5" x2="137.5" y1="590.86" y2="598.86"/><line style="stroke:#181818;stroke-width:1;" x1="143.5" x2="143.5" y1="590.86" y2="598.86"/><ellipse cx="143.5" cy="584.86" fill="none" rx="4" ry="4" style="stroke:#181818;stroke-width:1;"/><text fill="#000000" font-family="sans-serif" font-size="13" lengthAdjust="spacing" textLength="42.6436" x="100.5" y="565.5051">sent_to</text></g><!--link user to recipient--><g class="link" data-entity-1="ent0008" data-entity-2="ent0009" data-link-type="crowfoot" data-source-line="87" id="lnk16"><path codeLine="87" d="M252,529.69 C252,553.76 252,555.93 252,580.89" fill="none" id="user-recipient" style="stroke:#181818;stroke-width:1;"/><line style="stroke:#181818;stroke-width:1;" x1="248" x2="256" y1="525.69" y2="525.69"/><line style="stroke:#181818;stroke-width:1;" x1="248" x2="256" y1="528.69" y2="528.69"/><line style="stroke:#181818;stroke-width:1;" x1="252" x2="252" y1="529.69" y2="521.69"/><line style="stroke:#181818;stroke-width:1;" x1="252" x2="258" y1="590.89" y2="598.89"/><line style="stroke:#181818;stroke-width:1;" x1="252" x2="246" y1="590.89" y2="598.89"/><line style="stroke:#181818;stroke-width:1;" x1="252" x2="252" y1="590.89" y2="598.89"/><ellipse cx="252" cy="584.89" fill="none" rx="4" ry="4" style="stroke:#181818;stroke-width:1;"/><text fill="#000000" font-family="sans-serif" font-size="13" lengthAdjust="spacing" textLength="48.4072" x="203" y="556.7851">receives</text></g><?plantuml-src dPLTRXD94CVVvnGbNbPQOGvW8IIa1Ga1gzr4VhPwPzhZLcQcJNTF5Y-iHC9A20N16VO6Lh8c8IJc2ZqtujyVOu-_XBHFhgwghlxLVwhROv5nIeLA2vxe8r5Dc68b5QBYPZhX99KPoqv0Zrac_nHLJYDMwEwM2KkFMCuFpRJWf7XgM9MZPl8JzNezUdH0cM2vIynvnHKpFAC_flJisNEQA5bEZ4jB4buPOQPqvu3dGbPtY6dKSYQzIeX-3lPGPDIdmU39BtJ__czF7pn029k9AbPoH8wPIiTCmP4MeiHHmxzajHwOo4bTCECAzqbK9lbxTVPpMGaZ5PeyD3x5O-XW1uwus0koW_Dn2BSxjr0TZQapvynu2kp2EMMLRtj5XIf5CSpGcWlWfyj_o2ijLO3sPcJszbxaNIsrp66d7uWkSWsTrXokHgqxhgwgdEbQyH9hZrQkre6luzWFkTr3P8oxio4pKH8ZIex0CIlgTVbUrAm0qd1Ki7mtwu7GHuybXfZf03kAYq3Qhlx7vrzkTNJhe0g7RclilGK_viNwOCjgX9jRfTtMEXqyBBWAwCnPWTkRUw5tTXMnKyNTZTqILmDCkGExR2NN6Yy1V8Q_D3yOYuTu3jBfGFCmi3MC0Eki_Qmrnd_h2YbPh3juoKH7DnGP_Fhazy4Z5DhKwW0QJaGxdAfTjSzENEu5sfOsAhVLHlHdl13GReUcCJ8Txf8jFeQlN_TwyjNoJUgxUJ0CxqBIkjgCy03qQIorGJGiOx1x1Vlk6SxgbEkDCvQZZnfC9yjb38VnmgTM8i-vqabmnEXAnxv3mTZBn7_Y7N7O78th9AaatZNK6nkIetYP4ljlyxPvRs_jeZbfJfiFP1Vscxt2uioUsvcTDwVKdEBdJVC6xbFakT-FP6-GURjomRwmixk9_Sz-RJwHlOOxX1Rs2w7I1SmvSgvGwctp4OUTkBmhUubISnzqvPoBx3U_xy9nsSlcx1wcAYFNm6ORhN1en9utdv3yWPeJ2dzqg8FzrpZySjNEtQHvvyWs3g7c7qzx4m1TPW1SzOF4QyU9tRT-uuBQddnmTc-3mby1Sa8WRsO_Hpszn0lmpA5yx1h2BHK3wnpR7HLEdwsqSi0Gvxmvyr67T4F-UvnWCU-ez1q0?></g></svg>